<?xml version="1.0" encoding="UTF-8" standalone="no"?>
<svg
   viewBox="0 0 1077.0118 336.02341"
   class="fwTMCeAaUoWDj9WcQbgy"
   width="1077.0118"
   height="336.02341"
   version="1.1"
   id="svg6"
   sodipodi:docname="Spotify.svg"
   xmlns:inkscape="http://www.inkscape.org/namespaces/inkscape"
   xmlns:sodipodi="http://sodipodi.sourceforge.net/DTD/sodipodi-0.dtd"
   xmlns="http://www.w3.org/2000/svg"
   xmlns:svg="http://www.w3.org/2000/svg">
  <defs
     id="defs10" />
  <sodipodi:namedview
     id="namedview8"
     pagecolor="#ffffff"
     bordercolor="#000000"
     borderopacity="0.25"
     inkscape:showpageshadow="2"
     inkscape:pageopacity="0.0"
     inkscape:pagecheckerboard="0"
     inkscape:deskcolor="#d1d1d1"
     showgrid="false" />
  <title
     id="title2">Spotify</title>
  <path
     id="path1722"
     d="M 168.01173,-2.8066406e-5 A 168.01151,168.01151 0 0 0 7.3266602e-8,168.01168 168.01151,168.01151 0 0 0 168.01173,336.0234 168.01151,168.01151 0 0 0 336.02345,168.01168 168.01151,168.01151 0 0 0 168.01173,-2.8066406e-5 Z M 226.21095,37.705042 178.55274,145.34958 l 70.1836,31.07226 -137.91016,121.89648 47.6582,-107.64257 -70.183595,-31.07422 z m 646.80078,39.29493 c -9.99999,0 -19,8.00001 -19,18 0,9.999988 9.00001,18.999998 19,18.999998 9.99999,0 18,-9.00001 18,-18.999998 0,-9.99999 -8.00001,-18 -18,-18 z m 77,7 c -23.99998,0 -36,14.00002 -36,38.999998 v 5 h -13 c -1,0 -2,1 -2,2 v 22 c 0,0.99999 1,2 2,2 h 13 v 89 c 0,0.99999 1,2 2,2 h 26 c 1,0 1,-1.00001 1,-2 v -89 h 25 l 36.99997,89 c -4.0001,8.99999 -8.00002,11 -14.00002,11 -5,0 -10.0001,-1.00001 -15,-4 h -1 l -1,1 -8.99995,19 c 0,0.99999 0,3 1,3 8.99995,4.99999 17.00005,7 26.99995,7 19.00022,0 30.00012,-9.00003 39.00012,-33 l 45,-116 v -2 c 0,-1 -1,-1 -2,-1 h -27 c -1,0 -1,1 -1,2 l -28,78 -30.00012,-78 c 0,-1 -1,-2 -2,-2 h -43.99995 v -3 c 0,-10.99999 4.00001,-15 13,-15 4.99999,0 10,0 15,2 h 0.99995 c 0,0 1,-1.00001 1,-2 V 88.999972 c 0,-1 0,-2 -1,-2 -4.99995,-2 -11.99996,-3 -21.99995,-3 z m -505,5 c -30.99997,0 -53,19.000018 -53,45.999998 0,28.99997 20.00003,38 52,46 27.99997,5.99999 32,12.00001 32,22 0,10.99998 -10.00002,17 -25,17 -16.99998,0 -33.00002,-6.00002 -47,-20 -1,0 -1,1 -1,1 l -16,19 c -1,0.99999 -1,2 0,3 17.99998,15.99998 40.00002,24 64,24 33.99996,0 55,-19.00003 55,-47 0,-23.99998 -15.00004,-37.00001 -50,-46 -28.99997,-7 -34,-12.00001 -34,-22 0,-9.99999 10.00001,-16 23,-16 12.99999,0 25.00001,5.00001 39,15 0,0 1,1 2,1 1,0 1,-1 1,-1 l 14,-20 c 1,-1 1,-1.00001 0,-2 -15.99999,-12.999988 -35.00002,-19.999998 -56,-19.999998 z m 342,8 c -1,0 -2,1 -2,2 v 28.999998 h -13 c -1,0 -2,1 -2,2 v 22 c 0,0.99999 1,2 2,2 h 13 v 58 c 0,22.99997 11.00002,35 34,35 8.99999,0 18.00001,-2.00001 25,-6 1,0 1,-1.00001 1,-2 v -21 c 0,-1 0,-2 -1,-2 h -2 c -5,2.99999 -11.00001,4 -16,4 -7.99999,0 -12,-4.00001 -12,-12 v -54 h 30 c 1,0 2,-1.00001 2,-2 v -22 c 0,-1 -1,-2 -2,-2 h -30 V 98.999972 c 0,-1 0,-2 -1,-2 z m -205,28.999998 c -14.99999,0 -26.00001,5.00001 -36,17 v -13 c 0,-1 -1,-2 -2,-2 h -26 c -1,0 -2,1 -2,2 v 147 c 0,0.99999 1,2 2,2 h 26 c 1,0 2,-1.00001 2,-2 v -46 c 9.99999,10.99998 21.00001,16 36,16 26.99997,0 54,-21.00004 54,-61 0,-39.99996 -27.00003,-60 -54,-60 z m 125,0 c -34.99997,0 -63,27.00003 -63,61 0,33.99996 27.00003,60 62,60 34.99996,0 62,-27.00004 62,-61 0,-33.99997 -26.00004,-60 -61,-60 z m 153,2 c -1,0 -2,1 -2,2 v 113 c 0,0.99999 1,2 2,2 h 26 c 1,0 1,-1.00001 1,-2 v -113 c 0,-1 0,-2 -1,-2 z m -284,24 c 17.99998,0 30,14.00002 30,34 0,19.99998 -12.00002,35 -30,35 -17.99998,0 -31,-15.00002 -31,-35 0,-19.99998 13.00002,-34 31,-34 z m 130,0 c 18.99998,0 33,15.00002 33,35 0,19.99998 -13.00002,34 -32,34 -18.99998,0 -33,-15.00002 -33,-35 0,-19.99998 13.00002,-34 32,-34 z"
     style="fill:#ffffff" />
</svg>
